<svg xmlns="http://www.w3.org/2000/svg" viewBox="0 0 191 33" fill="#40001b">
  <g>
    <path d="M15.9308 14.7232C17.5338 14.7232 18.8381 13.412 18.8381 11.8006C18.8381 10.1893 17.5338 8.87812 15.9308 8.87812C14.3278 8.87812 13.0234 10.1893 13.0234 11.8006C13.0234 13.412 14.3278 14.7232 15.9308 14.7232Z"/>
    <path d="M15.9306 0.0206966C7.14884 0.0206966 0 7.20689 0 16.0345C0 24.8621 7.14884 32.0483 15.9306 32.0483C18.7284 32.0483 21.337 31.3077 23.627 30.0266L20.6799 26.7037C19.2262 27.3542 17.6232 27.7246 15.9306 27.7246C14.2379 27.7246 12.6349 27.3542 11.1813 26.7037C10.9323 26.5936 10.6934 26.4735 10.4544 26.3434C10.1956 26.2033 9.9566 26.0531 9.70768 25.893C8.55272 25.1524 7.5471 24.2215 6.71075 23.1406C6.17309 22.44 5.71509 21.6894 5.34669 20.8787C5.22721 20.6184 5.12765 20.3382 5.02808 20.068C4.56012 18.8069 4.28134 17.4457 4.28134 16.0245C4.28134 9.56892 9.49859 4.32441 15.9206 4.32441C22.3426 4.32441 27.5599 9.56892 27.5599 16.0245C27.5599 17.4457 27.291 18.8069 26.8131 20.068L29.9295 23.581C31.1442 21.3291 31.8412 18.7568 31.8412 16.0245C31.8711 7.20689 24.7222 0.0206966 15.9306 0.0206966Z"/>
    <path d="M7.93555 20.3583C8.63251 21.6494 9.62817 22.7603 10.8329 23.5811L15.9407 17.8261L28.2171 31.658L31.4929 28.8656L19.6345 15.5041C18.6688 16.505 17.3246 17.1355 15.8311 17.1355C14.3376 17.1355 13.0931 16.555 12.1372 15.6242L7.93555 20.3583Z"/>
    <path d="M64.2201 9.83906H59.7197V31.6579H64.2201V9.83906Z"/>
    <path d="M73.8383 1.31171H69.3379V31.6579H73.8383V1.31171Z"/>
    <path d="M83.4164 9.83906H78.916V31.6579H83.4164V9.83906Z"/>
    <path d="M106.287 28.8855C107.989 26.8437 108.856 24.1014 108.856 20.7385C108.856 17.3756 107.989 14.6632 106.297 12.6115C104.584 10.5397 102.384 9.48876 99.7553 9.48876C97.6046 9.48876 95.8622 10.2194 94.5778 11.6606C93.9008 12.4213 93.3333 13.3121 92.8753 14.3329C92.9848 13.4121 93.0346 12.3712 93.0346 11.2203V1.31171H88.5342V31.6579H93.5722L93.5224 31.2375C93.4129 30.3367 93.1939 29.2057 92.8454 27.8546C92.935 28.0147 93.0246 28.1649 93.1142 28.315C93.4926 28.9255 93.9804 29.526 94.548 30.0965C95.1354 30.687 95.8722 31.1574 96.7484 31.4877C97.6146 31.818 98.5804 31.9881 99.6159 31.9881C102.314 31.9881 104.564 30.9372 106.287 28.8755V28.8855ZM102.722 25.963C101.687 27.2641 100.283 27.8946 98.4211 27.8946C96.7185 27.8946 95.4241 27.3542 94.4783 26.2432C93.5324 25.1322 93.0445 23.741 93.0445 22.0896V20.3982C93.0445 18.3264 93.5523 16.6449 94.548 15.4139C95.5337 14.1928 96.838 13.5923 98.5206 13.5923C100.323 13.5923 101.697 14.2228 102.722 15.534C103.758 16.8451 104.286 18.5966 104.286 20.7385C104.286 22.8803 103.758 24.6518 102.722 25.9529V25.963Z"/>
    <path d="M112.599 18.2966V31.6581H117.099V19.1773C117.099 17.1156 117.438 15.6843 118.115 14.9437C118.782 14.2131 119.957 13.8428 121.629 13.8428H124.497V9.82929H120.833C115.377 9.82929 112.609 12.6717 112.609 18.2866L112.599 18.2966Z"/>
    <path d="M131.985 9.83906H127.484V31.6579H131.985V9.83906Z"/>
    <path d="M189.862 14.9332C189.494 13.592 188.966 12.5211 188.299 11.7504C187.632 10.9798 186.885 10.3993 186.088 10.0389C185.292 9.67864 184.406 9.48847 183.46 9.48847C181.518 9.48847 179.895 10.2291 178.641 11.6904C177.755 12.7213 177.068 13.9723 176.57 15.4336C176.57 14.0924 176.211 12.8814 175.495 11.8305C174.429 10.2792 172.766 9.48847 170.556 9.48847C168.535 9.48847 166.902 10.2191 165.697 11.6603C165.14 12.3309 164.662 13.1016 164.273 13.9723C164.473 12.8914 164.652 11.6503 164.831 10.2591L164.881 9.83877H159.843V31.6576H164.343V19.8874C164.343 17.9858 164.751 16.4345 165.568 15.2735C166.364 14.1425 167.47 13.592 168.973 13.592C170.257 13.592 171.213 14.0924 171.86 15.1133C172.537 16.1742 172.886 18.0659 172.886 20.7382V31.6476H177.386V19.8774C177.386 17.9758 177.795 16.4244 178.601 15.2634C179.388 14.1325 180.493 13.582 181.986 13.582C183.281 13.582 184.226 14.0824 184.874 15.1033C185.551 16.1642 185.899 18.0559 185.899 20.7282V31.6376H190.4V19.5772C190.4 17.8056 190.21 16.2343 189.852 14.9232L189.862 14.9332Z"/>
    <path d="M61.9903 7.52784C63.5933 7.52784 64.8977 6.21671 64.8977 4.60533C64.8977 2.99394 63.5933 1.68281 61.9903 1.68281C60.3873 1.68281 59.083 2.99394 59.083 4.60533C59.083 6.21671 60.3873 7.52784 61.9903 7.52784Z"/>
    <path d="M81.1856 1.68281C79.5826 1.68281 78.2783 2.99394 78.2783 4.60533C78.2783 6.21671 79.5826 7.52784 81.1856 7.52784C82.7887 7.52784 84.093 6.21671 84.093 4.60533C84.093 2.99394 82.7887 1.68281 81.1856 1.68281Z"/>
    <path d="M129.734 7.52784C131.337 7.52784 132.642 6.21671 132.642 4.60533C132.642 2.99394 131.337 1.68281 129.734 1.68281C128.131 1.68281 126.827 2.99394 126.827 4.60533C126.827 6.21671 128.131 7.52784 129.734 7.52784Z"/>
    <path d="M148.154 31.6083C153.132 31.3681 155.661 28.5357 155.661 23.171V9.80952H151.161V22.2903C151.161 24.3521 150.822 25.7833 150.145 26.5239C149.478 27.2546 148.303 27.6249 146.631 27.6249H145.286C143.614 27.6249 142.439 27.2546 141.772 26.5239C141.105 25.7833 140.756 24.3621 140.756 22.2903V9.80952H136.256V23.171C136.256 28.5357 138.785 31.3681 143.763 31.6083L144.47 31.6283H147.427L148.134 31.6083H148.154Z"/>
    <path d="M47.8815 31.6378C52.8598 31.3976 55.3888 28.5652 55.3888 23.2006V9.83906H50.8884V22.3198C50.8884 24.3816 50.5499 25.8128 49.8729 26.5535C49.2058 27.2841 48.0309 27.6544 46.3582 27.6544H45.014C43.3413 27.6544 42.1664 27.2841 41.4994 26.5535C40.8323 25.8128 40.4838 24.3916 40.4838 22.3198V9.83906H35.9834V23.2006C35.9834 28.5652 38.5124 31.3976 43.4907 31.6378L44.1976 31.6579H47.1547L47.8616 31.6378H47.8815Z"/>
  </g>
</svg>
